# xmcd
#
# Track frame offsets:
#	150
#	16082
#	32094
#	53177
#	68787
#	92215
#	104445
#	118650
#	136347
#	157582
#	175602
#	191497
#
# Disc length: 2736 seconds
#
# Revision: 2
# Processed by: cddbd v1.5PL3 Copyright (c) Steve Scherf et al.
# Submitted via: EasyCDDAExtractor 7.0.4.1
#
DISCID=920aae0c
DTITLE=สุนทรีย์ เวชานนท์ - คิดถึง...โฟล์คซองคำเมือง
DYEAR=1900
DGENRE=
TTITLE0=บ้านบนดอย
TTITLE1=รางวัลแด่คนช่างฝัน
TTITLE2=อุ้ยคำ
TTITLE3=มะเมียะ
TTITLE4=ตากับหลาน
TTITLE5=ล้านนา
TTITLE6=เอื้องผึ้งจันผา
TTITLE7=ล่องแม่ปิง
TTITLE8=มิดะ
TTITLE9=ลุงต๋าคำ
TTITLE10=แม่ค้าปลาจ่อม
TTITLE11=ของกิ๋นคนเมือง
EXTD=
EXTT0=
EXTT1=
EXTT2=
EXTT3=
EXTT4=
EXTT5=
EXTT6=
EXTT7=
EXTT8=
EXTT9=
EXTT10=
EXTT11=
PLAYORDER=
